# This file uses centimeters as units for non-parametric coordinates.

mtllib Arrow.mtl
g default
v -0.250000 -0.707107 0.000000
v 0.250000 -0.707107 0.000000
v 0.250000 0.000000 0.707107
v -0.250000 0.000000 0.707107
v -0.250000 0.250000 0.457107
v 0.250000 0.250000 0.457107
v 0.250000 -0.207107 0.000000
v -0.250000 -0.207107 0.000000
v 0.250000 0.000000 -0.707107
v 0.250000 0.250000 -0.457107
v -0.250000 0.250000 -0.457107
v -0.250000 0.000000 -0.707107
vt 0.375000 0.000000
vt 0.625000 0.000000
vt 0.625000 0.250000
vt 0.375000 0.250000
vt 0.375000 0.161612
vt 0.625000 0.161612
vt 0.625000 0.000000
vt 0.375000 0.000000
vt 0.875000 0.000000
vt 0.875000 0.088388
vt 0.713388 0.088388
vt 0.713388 0.250000
vt 0.375000 0.338388
vt 0.625000 0.338388
vt 0.625000 0.838388
vt 0.375000 0.838388
vt 0.375000 1.000000
vt 0.625000 1.000000
vt 0.625000 0.661612
vt 0.625000 0.750000
vt 0.375000 0.750000
vt 0.375000 0.661612
vt 0.625000 1.000000
vt 0.375000 1.000000
vt 0.125000 0.000000
vt 0.286612 0.250000
vt 0.286612 0.088388
vt 0.125000 0.088388
vn 0.000000 -0.707107 0.707107
vn 0.000000 -0.707107 0.707107
vn 0.000000 -0.707107 0.707107
vn 0.000000 -0.707107 0.707107
vn 0.000000 0.707107 -0.707107
vn 0.000000 0.707107 -0.707107
vn 0.000000 0.707107 -0.707107
vn 0.000000 0.707107 -0.707107
vn 1.000000 0.000000 0.000000
vn 1.000000 0.000000 0.000000
vn 1.000000 0.000000 0.000000
vn 1.000000 0.000000 0.000000
vn 1.000000 0.000000 0.000000
vn 1.000000 0.000000 0.000000
vn 0.000000 0.707107 0.707107
vn 0.000000 0.707107 0.707107
vn 0.000000 0.707107 0.707107
vn 0.000000 0.707107 0.707107
vn 0.000000 0.707107 0.707107
vn 0.000000 0.707107 0.707107
vn 0.000000 0.707107 0.707107
vn 0.000000 0.707107 0.707107
vn 0.000000 0.707107 -0.707107
vn 0.000000 0.707107 -0.707107
vn 0.000000 0.707107 -0.707107
vn 0.000000 0.707107 -0.707107
vn 0.000000 -0.707107 -0.707107
vn 0.000000 -0.707107 -0.707107
vn 0.000000 -0.707107 -0.707107
vn 0.000000 -0.707107 -0.707107
vn -1.000000 0.000000 0.000000
vn -1.000000 0.000000 0.000000
vn -1.000000 0.000000 0.000000
vn -1.000000 0.000000 0.000000
vn -1.000000 0.000000 0.000000
vn -1.000000 0.000000 0.000000
s off
g pCube3
usemtl initialShadingGroup
f 1/1/1 2/2/2 3/3/3 4/4/4
f 5/5/5 6/6/6 7/7/7 8/8/8
f 2/2/9 9/9/10 10/10/11 7/11/12 6/12/13 3/3/14
f 5/13/15 4/4/16 3/3/17 6/14/18
f 10/15/19 11/16/20 8/17/21 7/18/22
f 10/19/23 9/20/24 12/21/25 11/22/26
f 12/21/27 9/20/28 2/23/29 1/24/30
f 12/25/31 1/1/32 4/4/33 5/26/34 8/27/35 11/28/36
